<svg xmlns="http://www.w3.org/2000/svg" width="489.39" height="95.13" viewBox="0 0 489.39 95.13"><title>brandwatch</title><circle cx="80.82" cy="40.67" r="8.16" transform="translate(19.69 110.14) rotate(-77.81)" fill="#ff8f00"/><circle cx="57.24" cy="45.19" r="12.49" transform="translate(-3.32 90.66) rotate(-77.81)" fill="#f46b00"/><circle cx="77.8" cy="61.44" r="10.49" transform="translate(-2.99 123.58) rotate(-77.81)" fill="#ff586f"/><circle cx="105.34" cy="50.87" r="6.83" transform="translate(29.07 142.16) rotate(-77.81)" fill="#8ea53c"/><circle cx="44.29" cy="69.23" r="5.83" transform="translate(-37.04 96.97) rotate(-77.81)" fill="#f6be00"/><circle cx="69.1" cy="27.68" r="5.33" transform="translate(23.14 88.44) rotate(-77.81)" fill="#f6be00"/><circle cx="35.47" cy="4.1" r="3.16" transform="translate(19.67 36.97) rotate(-77.81)" fill="#9c7cb6"/><circle cx="7.3" cy="81.39" r="3" transform="translate(-78.1 70.41) rotate(-77.81)" fill="#969c9e"/><circle cx="66.17" cy="91.9" r="4.16" transform="translate(-41.94 136.23) rotate(-77.81)" fill="#008eb4"/><circle cx="31.22" cy="46.41" r="4.16" transform="translate(-25.04 66.19) rotate(-77.81)" fill="#5fc3e6"/><circle cx="60.04" cy="63.95" r="3.83" transform="translate(-19.45 108.2) rotate(-77.81)" fill="#f46b00"/><circle cx="98.61" cy="17.46" r="4.33" transform="translate(56.41 109.22) rotate(-77.81)" fill="#5fc3e6"/><circle cx="98.63" cy="75.59" r="3.5" transform="translate(-15.05 15.67) rotate(-9.13)" fill="#ff8f00"/><path d="M158.38,31h-.11a15.43,15.43,0,0,0-8.33,2.69V17.5l-6.51,0V54.94c0,9.41,6.12,16,14.92,16h0a14.51,14.51,0,0,0,11.93-5.57c2.82-3.57,4.2-8.34,4.2-14.58,0-6.07-1.33-10.59-4.19-14.21A14.53,14.53,0,0,0,158.38,31ZM168,50.77c0,4.42-.9,8-2.61,10.36-1.59,2.19-3.9,3.25-7.06,3.25-5.79,0-8.38-4.75-8.38-9.45v-9.6c0-4.69,5.05-7.8,8.4-7.8,3.16,0,5.46,1.06,7,3.24C167.16,43.24,168,46.41,168,50.77Z" transform="translate(-4.3 -0.93)" fill="#4c4c4c"/><path d="M254.83,31c-9.16,0-14.62,5.87-14.62,15.71V70.28h6.53V46.64c0-8.24,5.67-9.13,8.1-9.13s8.1.89,8.1,9.13V70.28h6.53V46.7C269.46,36.87,264,31,254.83,31Z" transform="translate(-4.3 -0.93)" fill="#4c4c4c"/><path d="M198.25,37.81a9.78,9.78,0,0,0-2.41-.3c-2.44,0-8.1.89-8.1,9.13V70.28h-6.53V46.7c0-9.84,5.47-15.71,14.62-15.71a18.23,18.23,0,0,1,4.11.45Z" transform="translate(-4.3 -0.93)" fill="#4c4c4c"/><path d="M300.74,17.47V33.68A15.47,15.47,0,0,0,292.4,31h-.11a14.51,14.51,0,0,0-11.93,5.57c-2.86,3.62-4.19,8.14-4.19,14.21,0,6.23,1.37,11,4.19,14.58a14.54,14.54,0,0,0,11.94,5.57h.1c8.76,0,14.87-6.57,14.87-16V17.46Zm0,27.86v9.61c0,4.7-2.59,9.45-8.38,9.45-3.16,0-5.47-1.06-7.06-3.25-1.73-2.4-2.61-5.89-2.61-10.37s.83-7.54,2.61-10c1.58-2.18,3.88-3.24,7-3.24h0C295.7,37.53,300.75,40.64,300.75,45.33Z" transform="translate(-4.3 -0.93)" fill="#4c4c4c"/><path d="M442.19,37.51a9.52,9.52,0,0,1,6.23,2.09,6.66,6.66,0,0,1,2.31,5.14l6.34-.33c-.19-4.38-1.58-7.43-4.38-9.79A15.83,15.83,0,0,0,442.2,31a14.57,14.57,0,0,0-12,5.58C427.34,40.14,426,44.85,426,51s1.37,10.81,4.2,14.39a14.58,14.58,0,0,0,12,5.57,15.81,15.81,0,0,0,10.48-3.64c2.79-2.35,4.19-5.49,4.38-9.87l-6.34-.34a6.86,6.86,0,0,1-2.3,5.24,9.53,9.53,0,0,1-6.23,2.09c-3.19,0-5.51-1.06-7.09-3.25-1.76-2.44-2.62-5.77-2.62-10.19s.86-7.76,2.62-10.18C436.69,38.58,439,37.51,442.19,37.51Z" transform="translate(-4.3 -0.93)" fill="#4c4c4c"/><path d="M479.95,31a13.8,13.8,0,0,0-8.19,2.4q-.47.31-.91.65V17.53h-6.53V70.28h6.53V46.9c0-4.87,3.21-9.29,8.59-9.29,5,0,7.71,4.31,7.71,9V70.27h6.55v-23C493.7,33.17,484.22,31,479.95,31Z" transform="translate(-4.3 -0.93)" fill="#4c4c4c"/><path d="M420.18,64a4,4,0,0,1-5-.07,5.28,5.28,0,0,1-2.06-4.47v-21h7V31.92h-7V24.2h-6.57v7.71h-4.21v6.55h4.21v21c0,5.4,2.48,9,5.88,10.68a10.8,10.8,0,0,0,11.38-1.24Z" transform="translate(-4.3 -0.93)" fill="#4c4c4c"/><path d="M396.62,44.05c0-4.18-1.4-7.47-4.16-9.76A15.63,15.63,0,0,0,382.17,31,15.38,15.38,0,0,0,372,34.28a10.25,10.25,0,0,0-3.93,7.51l6.34.54a4.53,4.53,0,0,1,1.84-3.11,9.4,9.4,0,0,1,5.93-1.69c2.67,0,4.71.59,6.06,1.76A5.85,5.85,0,0,1,390.11,44v2.67h-7.28c-4.08,0-8.34.2-11.68,2.57a11.37,11.37,0,0,0-4.67,9.6c0,7.34,5.77,12.08,14.7,12.08a17.28,17.28,0,0,0,10.15-3.07l.21,2.42h5.08V56.4h0ZM390.1,56.4c0,5.93-4.81,8-8.92,8-2.46,0-8.18-.53-8.18-5.47a5.12,5.12,0,0,1,2.16-4.47c1.77-1.17,4.33-1.26,7.76-1.26h7.18v.39h0Z" transform="translate(-4.3 -0.93)" fill="#4c4c4c"/><path d="M233,44.05c0-4.18-1.4-7.47-4.16-9.76A15.63,15.63,0,0,0,218.52,31a15.38,15.38,0,0,0-10.17,3.29,10.25,10.25,0,0,0-3.93,7.51l6.34.54a4.53,4.53,0,0,1,1.84-3.11,9.4,9.4,0,0,1,5.93-1.69c2.67,0,4.71.59,6.06,1.76A5.85,5.85,0,0,1,226.47,44v2.67h-7.28c-4.08,0-8.34.2-11.68,2.57a11.37,11.37,0,0,0-4.67,9.6c0,7.34,5.77,12.08,14.7,12.08a17.28,17.28,0,0,0,10.15-3.07l.21,2.42H233V56.4h0ZM226.46,56.4c0,5.93-4.81,8-8.92,8-2.46,0-8.18-.53-8.18-5.47a5.12,5.12,0,0,1,2.16-4.47c1.77-1.17,4.33-1.26,7.76-1.26h7.18v.39h0Z" transform="translate(-4.3 -0.93)" fill="#4c4c4c"/><polygon points="353.61 30.7 345.6 58.59 337.58 30.7 331.4 30.7 323.39 58.59 315.38 30.7 309.2 30.7 320.31 69.35 326.48 69.35 334.49 41.46 342.51 69.35 348.68 69.35 359.78 30.7 353.61 30.7" fill="#4c4c4c"/></svg>